<?xml version="1.0" encoding="UTF-8"?>
<svg xmlns="http://www.w3.org/2000/svg" xmlns:xlink="http://www.w3.org/1999/xlink" width="48pt" height="48pt" viewBox="0 0 48 48" version="1.1">
<g id="surface84965">
<path style=" stroke:none;fill-rule:nonzero;fill:rgb(0.784314%,50.588235%,11.764706%);fill-opacity:1;" d="M 12 4 C 9.789062 4 8 5.789062 8 8 L 8 18 L 6 18 C 3.789062 18 2 19.789062 2 22 L 2 32 C 2 34.210938 3.789062 36 6 36 L 8 36 L 8 40 C 8 42.210938 9.789062 44 12 44 L 36 44 C 38.210938 44 40 42.210938 40 40 L 40 14 L 30 4 Z M 12 8 L 28 8 L 28 16 L 36 16 L 36 18 L 12 18 Z M 10 22 C 12.210938 22 14 23.789062 14 26 L 12 26 C 12 24.898438 11.101562 24 10 24 C 8.898438 24 8 24.898438 8 26 L 8 28 C 8 29.101562 8.898438 30 10 30 C 11.101562 30 12 29.101562 12 28 L 14 28 C 14 30.210938 12.210938 32 10 32 C 7.789062 32 6 30.210938 6 28 L 6 26 C 6 23.789062 7.789062 22 10 22 Z M 19.289062 22 C 22.136719 22.082031 22.308594 24.566406 22.308594 25.007812 L 20.375 25.007812 C 20.375 24.800781 20.410156 23.613281 19.257812 23.613281 C 18.90625 23.613281 18.121094 23.769531 18.179688 24.734375 C 18.238281 25.621094 19.40625 26.039062 19.621094 26.132812 C 20.070312 26.296875 22.28125 27.285156 22.300781 29.300781 C 22.304688 29.730469 22.195312 31.96875 19.328125 32 C 16.210938 32.035156 16 29.351562 16 28.796875 L 17.949219 28.796875 C 17.949219 29.089844 17.972656 30.511719 19.328125 30.402344 C 20.140625 30.335938 20.320312 29.75 20.347656 29.3125 C 20.394531 28.578125 19.691406 28.136719 18.953125 27.78125 C 17.914062 27.28125 16.269531 26.667969 16.238281 24.71875 C 16.210938 22.964844 17.5 21.949219 19.289062 22 Z M 24 22 L 26.105469 22 L 27.984375 29.292969 L 29.875 22 L 32 22 L 29.292969 32 L 26.691406 32 Z M 12 36 L 36 36 L 36 40 L 12 40 Z M 12 36 "/>
</g>
</svg>
