<?xml version="1.0" encoding="UTF-8"?>
<svg xmlns="http://www.w3.org/2000/svg" xmlns:xlink="http://www.w3.org/1999/xlink" width="48pt" height="48pt" viewBox="0 0 48 48" version="1.1">
<g id="surface88422">
<path style=" stroke:none;fill-rule:nonzero;fill:rgb(40%,40%,40%);fill-opacity:1;" d="M 12 4 C 9.8125 4 8 5.8125 8 8 L 8 18 C 5.789062 18 4 19.789062 4 22 L 4 32 C 4 34.210938 5.789062 36 8 36 L 8 40 C 8 42.1875 9.8125 44 12 44 L 36 44 C 38.1875 44 40 42.1875 40 40 L 40 14 L 30 4 Z M 12 8 L 28 8 L 28 16 L 36 16 L 36 18 L 12 18 Z M 8 22 L 14 22 L 14 24 L 12 24 L 12 32 L 10 32 L 10 24 L 8 24 Z M 16.050781 22 L 18.546875 22 L 19.996094 25.433594 L 21.449219 22 L 23.941406 22 L 21.40625 26.957031 L 24 32 L 21.476562 32 L 19.996094 28.503906 L 18.523438 32 L 16 32 L 18.589844 26.957031 Z M 26 22 L 32 22 L 32 24 L 30 24 L 30 32 L 28 32 L 28 24 L 26 24 Z M 12 36 L 36 36 L 36 40 L 12 40 Z M 12 36 "/>
</g>
</svg>
