<?xml version="1.0" encoding="UTF-8"?>
<svg xmlns="http://www.w3.org/2000/svg" xmlns:xlink="http://www.w3.org/1999/xlink" width="48pt" height="48pt" viewBox="0 0 48 48" version="1.1">
<g id="surface85328">
<path style=" stroke:none;fill-rule:nonzero;fill:rgb(3.137255%,47.058824%,76.470588%);fill-opacity:1;" d="M 24 6 L 4 10 L 4 38 L 24 42 Z M 28 10 L 28 14 L 40 14 L 40 18 L 28 18 L 28 22 L 40 22 L 40 26 L 28 26 L 28 30 L 40 30 L 40 34 L 28 34 L 28 38 L 42 38 C 43.105469 38 44 37.105469 44 36 L 44 12 C 44 10.894531 43.105469 10 42 10 Z M 6.589844 16.589844 L 9.660156 16.589844 L 10.644531 23.546875 C 10.714844 23.964844 10.769531 24.535156 10.785156 25.238281 L 10.835938 25.238281 C 10.851562 24.722656 10.925781 24.136719 11.046875 23.507812 L 12.308594 16.589844 L 16.046875 16.589844 L 17.214844 23.484375 C 17.285156 23.847656 17.335938 24.378906 17.386719 25.066406 L 17.425781 25.066406 C 17.441406 24.53125 17.496094 23.976562 17.5625 23.40625 L 18.519531 16.589844 L 21.40625 16.589844 L 18.640625 31.410156 L 16.011719 31.410156 L 14.253906 23.488281 C 14.164062 22.996094 14.117188 22.4375 14.097656 21.828125 L 14.0625 21.828125 C 14.027344 22.492188 13.957031 23.046875 13.871094 23.488281 L 12.078125 31.410156 L 9.34375 31.410156 Z M 6.589844 16.589844 "/>
</g>
</svg>
