<?xml version="1.0" encoding="UTF-8"?>
<svg xmlns="http://www.w3.org/2000/svg" xmlns:xlink="http://www.w3.org/1999/xlink" width="48pt" height="48pt" viewBox="0 0 48 48" version="1.1">
<g id="surface85042">
<path style=" stroke:none;fill-rule:nonzero;fill:rgb(77.647059%,13.333333%,6.27451%);fill-opacity:1;" d="M 24 6 L 4 10 L 4 38 L 24 42 Z M 28 10 L 28 14 L 40 14 L 40 34 L 28 34 L 28 38 L 42 38 C 43.105469 38 44 37.105469 44 36 L 44 12 C 44 10.894531 43.105469 10 42 10 Z M 7.976562 16 L 14.121094 16 C 15.914062 16 17.339844 16.464844 18.394531 17.394531 C 19.449219 18.328125 19.976562 19.5625 19.976562 21.09375 C 19.976562 22.664062 19.464844 23.882812 18.429688 24.757812 C 17.398438 25.632812 15.949219 26.066406 14.089844 26.066406 L 11 26.066406 L 11 32 L 7.976562 32 Z M 32 16 C 29.789062 16 28 17.789062 28 20 C 28 22.210938 29.789062 24 32 24 C 34.210938 24 36 22.210938 36 20 L 32 20 Z M 11 18.375 L 11 23.472656 L 13.9375 23.472656 C 14.871094 23.472656 15.582031 23.261719 16.074219 22.835938 C 16.566406 22.410156 16.8125 21.796875 16.8125 20.996094 C 16.8125 20.207031 16.5625 19.578125 16.0625 19.105469 C 15.566406 18.632812 14.882812 18.386719 14.011719 18.375 Z M 28 26 L 28 30 L 36 30 L 36 26 Z M 28 26 "/>
</g>
</svg>
