<?xml version="1.0" encoding="UTF-8"?>
<svg xmlns="http://www.w3.org/2000/svg" xmlns:xlink="http://www.w3.org/1999/xlink" width="48pt" height="48pt" viewBox="0 0 48 48" version="1.1">
<g id="surface87354">
<path style=" stroke:none;fill-rule:nonzero;fill:rgb(20.392157%,59.607843%,85.882353%);fill-opacity:1;" d="M 28 2 L 4 6 L 4 38 L 28 42 Z M 30 6 L 30 14 L 34 14 L 37 11.03125 L 41 15.085938 L 38 18 L 38 30 L 34 30 L 34 32 L 30 32 L 30 38 L 40 38 C 42.210938 38 44 36.210938 44 34 L 44 10 C 44 7.789062 42.210938 6 40 6 Z M 20 14 L 16.070312 30 L 13.34375 29.710938 L 10 15.046875 L 12.296875 14.804688 L 14.671875 26.242188 L 14.8125 26.242188 L 17.296875 14.28125 Z M 30 16 L 30 26 L 34 26 L 34 28 L 36 28 L 36 18 L 34 16 Z M 30 16 "/>
</g>
</svg>
