<?xml version="1.0" encoding="UTF-8"?>
<svg xmlns="http://www.w3.org/2000/svg" xmlns:xlink="http://www.w3.org/1999/xlink" width="48pt" height="48pt" viewBox="0 0 48 48" version="1.1">
<g id="surface85157">
<path style=" stroke:none;fill-rule:nonzero;fill:rgba(0,0,0,0.26);fill-opacity:1;" d="M 24 6 L 4 10 L 4 38 L 24 42 Z M 28 10 L 28 14 L 32 14 L 32 18 L 28 18 L 28 22 L 32 22 L 32 26 L 28 26 L 28 30 L 32 30 L 32 34 L 28 34 L 28 38 L 42 38 C 43.105469 38 44 37.105469 44 36 L 44 12 C 44 10.894531 43.105469 10 42 10 Z M 36 14 L 40 14 L 40 18 L 36 18 Z M 8.351562 16.59375 L 11.90625 16.59375 L 13.753906 21.023438 C 13.902344 21.386719 14.015625 21.804688 14.132812 22.28125 L 14.183594 22.28125 C 14.25 21.996094 14.382812 21.558594 14.585938 20.988281 L 16.644531 16.59375 L 19.886719 16.59375 L 16.015625 23.933594 L 20 31.40625 L 16.542969 31.40625 L 14.316406 26.578125 C 14.230469 26.40625 14.132812 26.066406 14.050781 25.589844 L 14.019531 25.589844 C 13.96875 25.816406 13.867188 26.160156 13.71875 26.617188 L 11.472656 31.40625 L 8 31.40625 L 12.121094 23.992188 Z M 36 22 L 40 22 L 40 26 L 36 26 Z M 36 30 L 40 30 L 40 34 L 36 34 Z M 36 30 "/>
</g>
</svg>
